# xmcd
#
# Track frame offsets: 
#        150
#        18293
#        37576
#        57234
#        75619
#        90319
#        104742
#        123759
#        141982
#        159541
#        175739
#        193962
#
# Disc length: 2846 seconds
#
# Revision: 0
# Processed by: cddbd v1.5.2PL0 Copyright (c) Steve Scherf et al.
# Submitted via: ExactAudioCopy v0.95b4
#
DISCID=920b1c0c
DTITLE=ดาวชัวร์ - สามสาว
DYEAR=2006
DGENRE=Country
TTITLE0=ค่อยๆ  ปล่อยมือ
TTITLE1=คนดีที่อ้ายบ่ฮัก
TTITLE2=น้องใหม่ใน ม.รัก
TTITLE3=เรียกเพื่อนเดือนเดียว
TTITLE4=สาวโรงงานคนเหงา
TTITLE5=สวย
TTITLE6=คนที่เธอเผลอรัก
TTITLE7=ถึงแม้ไม่แคร์แล้ว
TTITLE8=สองสายที่ไม่ได้รับ
TTITLE9=สาวศรีเมืองใหม่
TTITLE10=ส่งข่าวทิดมั่น
TTITLE11=ไม่รักไม่งอน
EXTD=
EXTT0=
EXTT1=
EXTT2=
EXTT3=
EXTT4=
EXTT5=
EXTT6=
EXTT7=
EXTT8=
EXTT9=
EXTT10=
EXTT11=
PLAYORDER=
